<svg xmlns="http://www.w3.org/2000/svg" viewBox="0 0 16 14">
  <defs>
    <style>
      .cls-1 {
        fill: #24d4e3;
      }
    </style>
  </defs>
  <path id="align-justify" class="cls-1" d="M7.992,14H.854a.778.778,0,1,1,0-1.556H7.992a.778.778,0,1,1,0,1.556ZM15.2,9.856H.8A.778.778,0,1,1,.8,8.3H15.2a.778.778,0,1,1,0,1.555Zm0-4.144H.8a.778.778,0,1,1,0-1.556H15.2a.778.778,0,1,1,0,1.556Zm0-4.157H.8A.79.79,0,0,1,0,.778.79.79,0,0,1,.8,0H15.2a.79.79,0,0,1,.8.778A.79.79,0,0,1,15.2,1.555Z"/>
</svg>
