<svg xmlns="http://www.w3.org/2000/svg" viewBox="0 0 17 18">
  <defs>
    <style>
      .cls-1 {
        fill: #fff;
      }
    </style>
  </defs>
  <path id="bell" class="cls-1" d="M8.458,18A2.225,2.225,0,0,1,6.8,17.3a3.055,3.055,0,0,1-.737-1.829H.8a.752.752,0,0,1-.8-.734A.764.764,0,0,1,.821,14a1.387,1.387,0,0,0,1.487-.984,13.927,13.927,0,0,0,.466-4.574A7.346,7.346,0,0,1,4.116,3.852,5.154,5.154,0,0,1,7.888,1.957V.784a.81.81,0,0,1,1.619,0v1.2c3.047.351,4.794,2.707,4.794,6.461C14.3,13.16,14.8,14,16.19,14a.738.738,0,1,1,0,1.47H10.914a3.13,3.13,0,0,1-.792,1.825A2.281,2.281,0,0,1,8.458,18ZM7.7,15.469a1.2,1.2,0,0,0,.3.76.57.57,0,0,0,.462.2.61.61,0,0,0,.486-.2,1.244,1.244,0,0,0,.327-.761H8.61a.824.824,0,0,1-.116-.008.819.819,0,0,1-.115.008Zm.68-11.936A3.68,3.68,0,0,0,5.391,4.777,5.574,5.574,0,0,0,4.351,8.41c0,2.028,0,4.125-.756,5.495H8.379a.818.818,0,0,1,.115.008A.825.825,0,0,1,8.61,13.9h4.783c-.755-1.37-.755-3.467-.755-5.495A5.574,5.574,0,0,0,11.6,4.777,3.68,3.68,0,0,0,8.61,3.533Zm2.412,4.154a.7.7,0,0,1-.707-.644,1.441,1.441,0,0,0-.848-1.231.7.7,0,0,1-.383-.385.657.657,0,0,1,.006-.51.706.706,0,0,1,.652-.423.74.74,0,0,1,.263.049A2.867,2.867,0,0,1,11.5,6.961a.673.673,0,0,1-.171.488.709.709,0,0,1-.495.238Z"/>
</svg>
