<svg xmlns="http://www.w3.org/2000/svg" width="55" height="51" viewBox="0 0 55 51">
    <g fill="none" fill-rule="evenodd" stroke="#24D4E3" stroke-width="2.21">
        <path stroke-linejoin="round" d="M9.76 10.952H5.324C3.436 10.952 2 12.414 2 14.31M48.565 15.429v-4.477H45.24"/>
        <path stroke-linecap="round" stroke-linejoin="round" d="M18.63 14.31l22.174-7.834 2.218 7.834M9.76 14.31L36.37 2l1.108 2.238"/>
        <path d="M51.891 28.857h-9.978c-2.45 0-4.435 2.004-4.435 4.476s1.986 4.477 4.435 4.477h9.978c.612 0 1.109-.502 1.109-1.12v-6.714c0-.618-.497-1.119-1.109-1.119zM41.913 33.333h2.217"/>
        <path d="M51.891 37.81V49H5.326C3.44 49 2 47.539 2 45.643V14.31c0 1.895 1.44 3.357 3.326 3.357h46.565v11.19"/>
        <path d="M39.696 23.262H35.26l-4.435 4.476h-5.543M51.891 43.405H38.587l-4.435-4.476h-3.326M30.826 38.929c0 1.854-1.489 3.357-3.326 3.357s-3.326-1.503-3.326-3.357c0-1.855 1.489-3.358 3.326-3.358s3.326 1.503 3.326 3.358z"/>
        <path d="M25.283 27.738c0 1.854-1.49 3.357-3.326 3.357-1.838 0-3.327-1.503-3.327-3.357 0-1.854 1.49-3.357 3.327-3.357s3.326 1.503 3.326 3.357zM17.522 38.929c0 1.854-1.49 3.357-3.326 3.357-1.837 0-3.326-1.503-3.326-3.357 0-1.855 1.489-3.358 3.326-3.358s3.326 1.503 3.326 3.358zM41.913 23.262h2.217M46.348 23.262h2.217M14.196 35.571v-5.595l-6.653-6.714H2M6.435 32.214v2.238M6.435 36.69v2.239M6.435 41.167v2.238"/>
    </g>
</svg>
