<svg xmlns="http://www.w3.org/2000/svg" viewBox="0 0 16 15">
  <defs>
    <style>
      .cls-1 {
        fill: #23d3e3;
      }
    </style>
  </defs>
  <path id="calendar" class="cls-1" d="M15.3,15H.7a.711.711,0,0,1-.7-.724V2.055a.767.767,0,0,1,.7-.789H2.322a.71.71,0,0,1,.695.723.71.71,0,0,1-.695.723H1.391V5.783H14.609V2.711h-.931a.71.71,0,0,1-.7-.723.71.71,0,0,1,.7-.723H15.3a.767.767,0,0,1,.7.789V14.277A.711.711,0,0,1,15.3,15ZM1.391,7.048v6.506H14.608V7.048ZM11.3,4.122a.888.888,0,0,1-.869-.9V.9a.87.87,0,1,1,1.74,0V3.218A.888.888,0,0,1,11.3,4.122Zm-6.609,0a.888.888,0,0,1-.869-.9V.9a.87.87,0,1,1,1.74,0V3.218A.888.888,0,0,1,4.7,4.122ZM9.1,2.711H6.9a.71.71,0,0,1-.7-.723.71.71,0,0,1,.7-.723H9.1a.71.71,0,0,1,.7.723A.71.71,0,0,1,9.1,2.711Z"/>
</svg>
