<svg xmlns="http://www.w3.org/2000/svg" xmlns:xlink="http://www.w3.org/1999/xlink" width="54" height="54" viewBox="0 0 54 54">
    <defs>
        <path id="b" d="M2.16 0h35.68A2.16 2.16 0 0 1 40 2.16v35.68A2.16 2.16 0 0 1 37.84 40H2.16A2.16 2.16 0 0 1 0 37.84V2.16A2.16 2.16 0 0 1 2.16 0z"/>
        <filter id="a" width="165%" height="165%" x="-20%" y="-20%" filterUnits="objectBoundingBox">
            <feOffset dx="5" dy="5" in="SourceAlpha" result="shadowOffsetOuter1"/>
            <feGaussianBlur in="shadowOffsetOuter1" result="shadowBlurOuter1" stdDeviation="3.5"/>
            <feColorMatrix in="shadowBlurOuter1" values="0 0 0 0 0.219607843 0 0 0 0 0.4 0 0 0 0 0.968627451 0 0 0 0.265823143 0"/>
        </filter>
    </defs>
    <g fill="none" fill-rule="evenodd">
        <g transform="translate(2 2)">
            <use fill="#000" filter="url(#a)" xlink:href="#b"/>
            <use fill="#3866F7" xlink:href="#b"/>
        </g>
        <path fill="#FFF" d="M21.242 14.758c-4.144 0-7.515 3.433-7.515 7.652 0 4.22 3.371 7.652 7.515 7.652s7.515-3.433 7.515-7.652c0-4.22-3.371-7.652-7.515-7.652m0 17.062c-5.096 0-9.242-4.221-9.242-9.41S16.146 13 21.242 13c5.096 0 9.242 4.221 9.242 9.41s-4.146 9.41-9.242 9.41"/>
        <path fill="#FFF" d="M18.22 17.026l3.252 3.312L24.75 17l2.244 2.286-3.277 3.337 3.252 3.312-2.185 2.225-3.253-3.312-3.286 3.346L16 25.91l3.286-3.346-3.252-3.312z"/>
    </g>
</svg>
