<svg xmlns="http://www.w3.org/2000/svg" xmlns:xlink="http://www.w3.org/1999/xlink" width="54" height="54" viewBox="0 0 54 54">
    <defs>
        <path id="b" d="M2.16 0h35.68A2.16 2.16 0 0 1 40 2.16v35.68A2.16 2.16 0 0 1 37.84 40H2.16A2.16 2.16 0 0 1 0 37.84V2.16A2.16 2.16 0 0 1 2.16 0z"/>
        <filter id="a" width="165%" height="165%" x="-20%" y="-20%" filterUnits="objectBoundingBox">
            <feOffset dx="5" dy="5" in="SourceAlpha" result="shadowOffsetOuter1"/>
            <feGaussianBlur in="shadowOffsetOuter1" result="shadowBlurOuter1" stdDeviation="3.5"/>
            <feColorMatrix in="shadowBlurOuter1" values="0 0 0 0 0.219607843 0 0 0 0 0.4 0 0 0 0 0.968627451 0 0 0 0.265823143 0"/>
        </filter>
    </defs>
    <g fill="none" fill-rule="evenodd">
        <g transform="translate(2 2)">
            <use fill="#000" filter="url(#a)" xlink:href="#b"/>
            <use fill="#3866F7" xlink:href="#b"/>
        </g>
        <path fill="#FFF" d="M19.937 29.704a.966.966 0 0 0-.027-1.366L14.358 23l5.552-5.338a.965.965 0 1 0-1.338-1.392l-6.276 6.034a.965.965 0 0 0 0 1.392l6.276 6.034a.963.963 0 0 0 1.365-.026m5.58.296a.966.966 0 0 1-.67-1.662L30.4 23l-5.552-5.338a.965.965 0 1 1 1.338-1.392l6.276 6.034a.965.965 0 0 1 0 1.392l-6.276 6.034a.962.962 0 0 1-.669.27"/>
    </g>
</svg>
