<svg xmlns="http://www.w3.org/2000/svg" viewBox="0 0 15 15">
  <defs>
    <style>
      .cls-1 {
        fill: #666;
      }
    </style>
  </defs>
  <path id="gear" class="cls-1" d="M7.5,15H7.411a9.588,9.588,0,0,1-1.084-.066.58.58,0,0,1-.5-.493l-.161-1.167a6.055,6.055,0,0,1-1.035-.438l-.922.693a.579.579,0,0,1-.7,0A9.588,9.588,0,0,1,2.2,12.8l-.063-.063a9.168,9.168,0,0,1-.721-.814.577.577,0,0,1,0-.7l.712-.941A6.014,6.014,0,0,1,1.7,9.245L.557,9.083a.578.578,0,0,1-.491-.5A9.625,9.625,0,0,1,0,7.5V7.411A9.6,9.6,0,0,1,.066,6.326a.578.578,0,0,1,.494-.5l1.169-.16a6.127,6.127,0,0,1,.437-1.032L1.472,3.71a.577.577,0,0,1,0-.7A9.409,9.409,0,0,1,2.2,2.2l.063-.063a9.168,9.168,0,0,1,.814-.721.587.587,0,0,1,.353-.121.572.572,0,0,1,.348.117l.942.715A6.084,6.084,0,0,1,5.755,1.7L5.917.557a.581.581,0,0,1,.5-.491A9.625,9.625,0,0,1,7.5,0h.088A9.6,9.6,0,0,1,8.674.066a.578.578,0,0,1,.5.494l.161,1.171a6.051,6.051,0,0,1,1.031.436l.926-.7a.576.576,0,0,1,.7,0A9.409,9.409,0,0,1,12.8,2.2l.063.063a9.339,9.339,0,0,1,.718.811.579.579,0,0,1,.005.7l-.714.941A6.089,6.089,0,0,1,13.3,5.754l1.145.164a.578.578,0,0,1,.491.5A9.625,9.625,0,0,1,15,7.5v.088a9.6,9.6,0,0,1-.066,1.085.58.58,0,0,1-.494.5l-1.168.159a6.061,6.061,0,0,1-.437,1.033l.694.925a.58.58,0,0,1,0,.7,9.588,9.588,0,0,1-.721.814l-.063.063a9.864,9.864,0,0,1-.811.72.59.59,0,0,1-.356.122.568.568,0,0,1-.349-.118l-.942-.715a6.014,6.014,0,0,1-1.037.42l-.163,1.148a.58.58,0,0,1-.5.491A9.625,9.625,0,0,1,7.5,15ZM4.6,11.564a.576.576,0,0,1,.371.135,4.887,4.887,0,0,0,1.357.563.573.573,0,0,1,.434.481l.15,1.086c.19.011.35.017.5.017H7.5c.153,0,.314-.005.5-.017l.152-1.075a.574.574,0,0,1,.443-.482,4.9,4.9,0,0,0,1.433-.58.582.582,0,0,1,.3-.083.591.591,0,0,1,.138.016.585.585,0,0,1,.23.116l.858.652c.14-.124.261-.236.367-.344l.063-.063c.115-.114.231-.238.345-.369l-.65-.866a.58.58,0,0,1-.027-.653,4.9,4.9,0,0,0,.595-1.386.572.572,0,0,1,.489-.472l1.091-.149c.011-.179.017-.339.017-.5V7.5c0-.148-.006-.318-.018-.506l-1.071-.152a.574.574,0,0,1-.482-.442A4.818,4.818,0,0,0,11.7,4.983a.562.562,0,0,1-.061-.123.578.578,0,0,1,.085-.54l.666-.877c-.1-.118-.221-.245-.344-.368l-.063-.063c-.113-.113-.237-.229-.369-.345l-.868.653a.576.576,0,0,1-.688,0,4.84,4.84,0,0,0-1.389-.581.574.574,0,0,1-.434-.482L8.092,1.171c-.167-.011-.341-.017-.5-.017H7.5c-.153,0-.314.005-.5.017L6.843,2.246a.579.579,0,0,1-.483.489,4.85,4.85,0,0,0-1.392.571.578.578,0,0,1-.445.064A.566.566,0,0,1,4.3,3.253l-.852-.646c-.123.108-.248.223-.368.344l-.063.062c-.121.122-.24.249-.345.369l.653.868a.575.575,0,0,1,.033.644c-.011.017-.022.033-.033.049a4.848,4.848,0,0,0-.579,1.381.573.573,0,0,1-.482.434l-1.089.149c-.011.167-.017.342-.017.5V7.5c0,.157.006.322.017.5l1.075.152a.579.579,0,0,1,.491.491v.007a.079.079,0,0,1,0,.014A4.9,4.9,0,0,0,3.3,10.035a.574.574,0,0,1,.054.482.567.567,0,0,1-.107.191l-.643.85c.108.123.223.247.343.367l.063.063c.113.113.237.229.369.345l.868-.652A.578.578,0,0,1,4.6,11.564Zm2.9-.918A3.143,3.143,0,1,1,10.643,7.5,3.147,3.147,0,0,1,7.5,10.646Zm0-5.133A1.989,1.989,0,1,0,9.49,7.5,1.992,1.992,0,0,0,7.5,5.513Z"/>
</svg>
