<svg xmlns="http://www.w3.org/2000/svg" width="15" height="15" viewBox="0 0 15 15">
    <path fill="#FFF" fill-rule="evenodd" d="M6.908 13.829c.148.01.323.017.503.017H7.5c.182 0 .356-.007.504-.017l.153-1.075a.577.577 0 0 1 .442-.481 4.873 4.873 0 0 0 1.434-.58.578.578 0 0 1 .667.05l.857.65c.112-.097.24-.215.368-.343l.062-.063c.128-.128.247-.257.345-.369l-.65-.865a.577.577 0 0 1-.027-.654c.27-.43.47-.895.594-1.385a.576.576 0 0 1 .49-.473l1.09-.15a7.98 7.98 0 0 0 .017-.502V7.5c0-.181-.008-.356-.017-.505l-1.072-.153a.577.577 0 0 1-.48-.441 4.86 4.86 0 0 0-.573-1.418.577.577 0 0 1 .024-.663l.666-.877a7.904 7.904 0 0 0-.344-.368l-.063-.062a7.93 7.93 0 0 0-.369-.345l-.868.652a.577.577 0 0 1-.687.005 4.862 4.862 0 0 0-1.388-.581.577.577 0 0 1-.434-.482L8.09 1.17a7.864 7.864 0 0 0-.502-.017H7.5c-.181 0-.356.008-.505.017l-.152 1.075a.577.577 0 0 1-.483.49 4.86 4.86 0 0 0-1.393.57.576.576 0 0 1-.671-.053l-.853-.647c-.112.098-.24.216-.368.344l-.062.063a7.764 7.764 0 0 0-.345.369l.652.868a.577.577 0 0 1 0 .693 4.86 4.86 0 0 0-.578 1.382.577.577 0 0 1-.482.434l-1.089.15a7.87 7.87 0 0 0-.017.502V7.5c0 .181.008.356.017.505l1.075.152a.577.577 0 0 1 .49.491l.003.021c.117.482.307.94.564 1.366a.577.577 0 0 1-.053.672l-.644.85c.098.111.216.24.344.368l.062.062c.129.129.258.247.37.345l.867-.652a.577.577 0 0 1 .718.019 4.86 4.86 0 0 0 1.357.563c.23.056.402.247.434.48l.15 1.087zM7.5 15H7.41c-.566 0-1.064-.063-1.085-.066a.577.577 0 0 1-.498-.493l-.161-1.166a6.004 6.004 0 0 1-1.035-.44l-.922.694a.577.577 0 0 1-.7-.005 9.534 9.534 0 0 1-.813-.72l-.063-.064c-.4-.4-.708-.796-.721-.813a.577.577 0 0 1-.004-.701l.713-.94a6.016 6.016 0 0 1-.422-1.04L.557 9.082a.577.577 0 0 1-.491-.498C.063 8.565 0 8.066 0 7.5V7.41c0-.566.063-1.064.066-1.085a.577.577 0 0 1 .493-.498l1.17-.16c.113-.358.26-.703.438-1.033L1.47 3.71a.577.577 0 0 1 .005-.7c.013-.017.32-.413.72-.813l.063-.063c.401-.4.797-.708.814-.721a.577.577 0 0 1 .702-.003l.942.714c.332-.172.68-.313 1.037-.42L5.917.557a.577.577 0 0 1 .498-.491C6.435.063 6.934 0 7.5 0h.089c.566 0 1.064.063 1.085.066a.577.577 0 0 1 .498.494l.16 1.17c.357.114.702.26 1.032.437l.926-.696a.577.577 0 0 1 .7.005c.017.013.413.32.813.72l.063.064c.4.4.708.797.721.813.16.207.16.494.003.702l-.714.94c.173.333.314.68.422 1.039l1.145.163c.257.037.458.24.491.498.003.021.066.519.066 1.085v.089c0 .566-.063 1.064-.066 1.085a.577.577 0 0 1-.494.498l-1.167.16c-.114.358-.26.703-.438 1.034l.694.925a.577.577 0 0 1-.005.699c-.013.017-.32.413-.72.813l-.064.063c-.4.4-.797.708-.813.721a.577.577 0 0 1-.702.003l-.943-.715a6.01 6.01 0 0 1-1.036.42l-.163 1.148a.577.577 0 0 1-.498.491c-.021.003-.519.066-1.085.066zm0-9.487c-1.097 0-1.99.893-1.99 1.99s.893 1.99 1.99 1.99 1.99-.893 1.99-1.99-.893-1.99-1.99-1.99zm0 5.133a3.147 3.147 0 0 1-3.143-3.143A3.147 3.147 0 0 1 7.5 4.359a3.147 3.147 0 0 1 3.143 3.144A3.147 3.147 0 0 1 7.5 10.646z"/>
</svg>
