<svg xmlns="http://www.w3.org/2000/svg" xmlns:xlink="http://www.w3.org/1999/xlink" width="54" height="54" viewBox="0 0 54 54">
    <defs>
        <path id="b" d="M2.16 0h35.68A2.16 2.16 0 0 1 40 2.16v35.68A2.16 2.16 0 0 1 37.84 40H2.16A2.16 2.16 0 0 1 0 37.84V2.16A2.16 2.16 0 0 1 2.16 0z"/>
        <filter id="a" width="165%" height="165%" x="-20%" y="-20%" filterUnits="objectBoundingBox">
            <feOffset dx="5" dy="5" in="SourceAlpha" result="shadowOffsetOuter1"/>
            <feGaussianBlur in="shadowOffsetOuter1" result="shadowBlurOuter1" stdDeviation="3.5"/>
            <feColorMatrix in="shadowBlurOuter1" values="0 0 0 0 0.219607843 0 0 0 0 0.4 0 0 0 0 0.968627451 0 0 0 0.265823143 0"/>
        </filter>
    </defs>
    <g fill="none" fill-rule="evenodd">
        <g transform="translate(2 2)">
            <use fill="#000" filter="url(#a)" xlink:href="#b"/>
            <use fill="#3866F7" xlink:href="#b"/>
        </g>
        <path fill="#FFF" d="M26.236 20.012a.814.814 0 0 1 0-1.13.771.771 0 0 1 1.107 0 .814.814 0 0 1 0 1.13.78.78 0 0 1-.553.236.78.78 0 0 1-.554-.236zm-8.59-.612c0-.442.351-.8.783-.8h5.666c.432 0 .782.358.782.8 0 .442-.35.8-.782.8h-5.666a.791.791 0 0 1-.782-.8zm12.789 5.8h-2.117c-.23 0-.492.11-.64.29l-2.135 2.529v-2.006c0-.441-.264-.813-.696-.813h-9.282v-8.6h14.87v8.6zm.782-10.2H14.783a.791.791 0 0 0-.783.8v10.213c0 .442.35.787.783.787h9.195v3.4c0 .336.248.636.556.751a.804.804 0 0 0 .899-.24L28.68 26.8h2.537a.78.78 0 0 0 .783-.787V15.8c0-.442-.35-.8-.783-.8z"/>
    </g>
</svg>
