<svg xmlns="http://www.w3.org/2000/svg" width="21" height="13" viewBox="0 0 21 13">
    <g fill="#CCC" fill-rule="evenodd">
        <path d="M.017 6.175C.073 2.826 3.147-.106 6.492.005 8.094-.069 9.6.63 10.828 1.61a23.082 23.082 0 0 1-1.646 1.707c-1.475-1.021-3.574-1.313-5.049-.134-2.11 1.462-2.206 4.913-.176 6.486 1.974 1.794 5.706.903 6.251-1.843-1.237-.019-2.476 0-3.713-.04-.003-.74-.006-1.478-.003-2.216a592.08 592.08 0 0 1 6.205.006c.124 1.738-.105 3.587-1.172 5.024-1.615 2.275-4.857 2.94-7.386 1.965-2.538-.969-4.336-3.653-4.122-6.39M16.827 4h1.803c.003.616.006 1.235.012 1.851.604.006 1.21.006 1.813.012v1.842c-.604.006-1.206.01-1.813.015-.006.62-.009 1.236-.012 1.851h-1.806c-.006-.615-.006-1.231-.012-1.847L15 7.705V5.863c.603-.006 1.206-.009 1.812-.012.003-.62.01-1.235.015-1.851"/>
    </g>
</svg>
