<svg xmlns="http://www.w3.org/2000/svg" viewBox="0 0 10 12">
  <defs>
    <style>
      .cls-1 {
        fill: #24d4e3;
      }
    </style>
  </defs>
  <path id="graph-bar" class="cls-1" d="M9.091,12a.876.876,0,0,1-.909-.837V.837A.912.912,0,0,1,10,.837V11.163A.876.876,0,0,1,9.091,12ZM5,12a.876.876,0,0,1-.909-.837V4.244A.876.876,0,0,1,5,3.407a.876.876,0,0,1,.909.837v6.918A.876.876,0,0,1,5,12ZM.909,12A.876.876,0,0,1,0,11.163V7.652a.876.876,0,0,1,.909-.837.876.876,0,0,1,.909.837v3.511A.876.876,0,0,1,.909,12Z"/>
</svg>
