<svg xmlns="http://www.w3.org/2000/svg" width="22" height="17" viewBox="0 0 22 17">
    <path fill="#24D4E3" fill-rule="evenodd" d="M1.221 17a1.25 1.25 0 0 1-.624-.167 1.158 1.158 0 0 1-.425-1.618l2.979-4.829c.21-.34.584-.557.994-.575.413-.019.803.165 1.045.486l1.271 1.692 2.701-4.434c.207-.34.578-.559.987-.58.408-.02.801.156 1.046.472l2.355 3.049L19.73.572a1.247 1.247 0 0 1 1.678-.403c.578.336.765 1.061.417 1.62l-7.118 11.43a1.23 1.23 0 0 1-.987.571 1.235 1.235 0 0 1-1.04-.473l-2.344-3.033-2.714 4.457a1.229 1.229 0 0 1-.995.58 1.239 1.239 0 0 1-1.048-.485l-1.278-1.702-2.029 3.29c-.228.37-.634.576-1.05.576"/>
</svg>
