<svg xmlns="http://www.w3.org/2000/svg" viewBox="0 0 20 20">
  <defs>
    <style>
      .cls-1 {
        fill: #23d3e3;
      }
    </style>
  </defs>
  <path id="information" class="cls-1" d="M10,20A10,10,0,1,1,20,10,10.011,10.011,0,0,1,10,20ZM10,1.739A8.261,8.261,0,1,0,18.261,10,8.27,8.27,0,0,0,10,1.739ZM9.414,16.046a.768.768,0,0,1-.477-.168.759.759,0,0,1-.269-.74L9.739,9.7l-.59.332A.761.761,0,0,1,8.4,8.707l2.029-1.143a.764.764,0,0,1,.374-.1.755.755,0,0,1,.445.144.766.766,0,0,1,.3.764l-1.111,5.633.911-.4a.761.761,0,1,1,.608,1.4l-2.241.976A.758.758,0,0,1,9.414,16.046ZM10.8,5.982a1.088,1.088,0,1,1,.769-.319A1.094,1.094,0,0,1,10.8,5.982Z"/>
</svg>
