<svg xmlns="http://www.w3.org/2000/svg" viewBox="0 0 16.002 13">
  <defs>
    <style>
      .cls-1 {
        fill: #fff;
      }
    </style>
  </defs>
  <path id="jewel" class="cls-1" d="M8,13a.66.66,0,0,1-.492-.224L.2,4.739A.817.817,0,0,1,.189,3.675L3.132.24A.671.671,0,0,1,3.639,0h8.723a.671.671,0,0,1,.507.24l2.943,3.434A.817.817,0,0,1,15.8,4.739l-7.3,8.036A.66.66,0,0,1,8,13ZM6.052,4.779,8,11.107l0,.024,0-.025L9.949,4.779Zm-3.765,0L6.044,8.913,4.766,4.779Zm8.947,0h0L9.955,8.911l3.758-4.132H11.234Zm-1.216-3.25h0l1.12,1.912h2.635L12.061,1.529H10.018Zm-2.606,0L6.291,3.442H9.707L8.588,1.529Zm-3.473,0L2.225,3.442H4.861L5.982,1.529H3.938Z" transform="translate(0.001)"/>
</svg>
