<svg xmlns="http://www.w3.org/2000/svg" xmlns:xlink="http://www.w3.org/1999/xlink" width="115" height="25" viewBox="0 0 115 25">
    <defs>
        <path id="a" d="M.088.1h24.029v24.465H.087z"/>
    </defs>
    <g fill="none" fill-rule="evenodd">
        <path fill="#24D4E3" d="M0 2.595V22.06h3.745V11.688l9.48 10.772h.995V3.022H10.45v10.772L.995 2.594zM18.331 15.42V2.996h3.745v12.399c0 4 6.075 4 6.075 0v-12.4h3.72v12.427c0 9.065-13.54 9.065-13.54 0M51.982 2.702h1.178V22.06h-3.797l.026-10.639-4.792 5.12-4.792-5.12V22.06h-3.798V2.702h1.205l7.385 8.372zM73.35 2.702h1.18V22.06h-3.798l.026-10.639-4.792 5.12-4.792-5.12V22.06h-3.798V2.702h1.205l7.385 8.372zM78.745 22.06V2.995h9.375v3.813h-5.63v3.813h4.923v3.813H82.49v3.813h5.944v3.813z"/>
        <g transform="translate(90.274 .036)">
            <mask id="b" fill="#fff">
                <use xlink:href="#a"/>
            </mask>
            <path fill="#24D4E3" d="M12.102 2.385c-5.387 0-9.77 4.462-9.77 9.947 0 5.485 4.383 9.948 9.77 9.948s9.77-4.463 9.77-9.948-4.383-9.947-9.77-9.947m0 22.18C5.477 24.565.088 19.077.088 12.332S5.478.099 12.102.099c6.625 0 12.015 5.488 12.015 12.233s-5.39 12.233-12.015 12.233" mask="url(#b)"/>
        </g>
        <path fill="#24D4E3" d="M98.115 5.278l4.228 4.305 4.261-4.34 2.919 2.972-4.262 4.34 4.229 4.304-2.841 2.893-4.228-4.305-4.273 4.35-2.918-2.972 4.272-4.35-4.228-4.305z"/>
    </g>
</svg>
