<svg xmlns="http://www.w3.org/2000/svg" xmlns:xlink="http://www.w3.org/1999/xlink" width="88" height="19" viewBox="0 0 88 19">
    <defs>
        <path id="a" d="M.068.076H18.55v18.82H.068z"/>
    </defs>
    <g fill="none" fill-rule="evenodd">
        <path fill="#FFF" d="M0 1.996V16.97h2.88V8.99l7.293 8.287h.766V2.324H8.038v8.287L.765 1.996zM14.1 11.862V2.304h2.882v9.537c0 3.077 4.673 3.077 4.673 0V2.304h2.86v9.558c0 6.974-10.414 6.974-10.414 0M39.986 2.078h.907V16.97h-2.921l.02-8.184-3.687 3.938-3.686-3.938v8.184h-2.921V2.08h.927l5.68 6.44zM56.424 2.078h.906V16.97h-2.92l.02-8.184-3.687 3.938-3.686-3.938v8.184h-2.922V2.08h.927l5.681 6.44zM60.573 16.97V2.303h7.212v2.933h-4.331V8.17h3.787v2.933h-3.787v2.933h4.573v2.933z"/>
        <g transform="translate(69.441 .028)">
            <mask id="b" fill="#fff">
                <use xlink:href="#a"/>
            </mask>
            <path fill="#FFF" d="M9.31 1.834c-4.144 0-7.516 3.433-7.516 7.652 0 4.22 3.372 7.652 7.516 7.652 4.143 0 7.515-3.433 7.515-7.652S13.453 1.834 9.31 1.834m0 17.062c-5.097 0-9.242-4.221-9.242-9.41 0-5.188 4.145-9.41 9.242-9.41 5.096 0 9.241 4.222 9.241 9.41 0 5.189-4.145 9.41-9.241 9.41" mask="url(#b)"/>
        </g>
        <path fill="#FFF" d="M75.473 4.06l3.253 3.311 3.277-3.337 2.245 2.286-3.278 3.337 3.253 3.312-2.186 2.225-3.252-3.312-3.286 3.346-2.245-2.285 3.286-3.347-3.252-3.311z"/>
    </g>
</svg>
