<svg xmlns="http://www.w3.org/2000/svg" viewBox="0 0 18 16">
  <defs>
    <style>
      .cls-1 {
        fill: #fff;
      }
    </style>
  </defs>
  <path id="message" class="cls-1" d="M10.825,16a.882.882,0,0,1-.291-.05.835.835,0,0,1-.556-.751V11.8H.783A.776.776,0,0,1,0,11.013V.8A.793.793,0,0,1,.783,0H17.217A.793.793,0,0,1,18,.8V11.013a.776.776,0,0,1-.783.787H14.681L11.433,15.71A.81.81,0,0,1,10.825,16ZM1.565,1.6v8.6h9.282a.737.737,0,0,1,.7.814v2l2.134-2.526a.874.874,0,0,1,.64-.29h2.118V1.6ZM12.79,5.248a.782.782,0,0,1-.554-.236.811.811,0,0,1,0-1.13.772.772,0,0,1,1.107,0,.813.813,0,0,1,0,1.13A.782.782,0,0,1,12.79,5.248ZM10.1,5.2H4.429a.8.8,0,0,1,0-1.6H10.1a.8.8,0,0,1,0,1.6Z"/>
</svg>
