<svg xmlns="http://www.w3.org/2000/svg" width="56" height="51" viewBox="0 0 56 51">
    <g fill="none" fill-rule="evenodd" stroke="#24D4E3" stroke-width="2.236">
        <path d="M48.348 43.405c0 3.09-2.531 5.595-5.652 5.595s-5.653-2.506-5.653-5.595c0-3.09 2.532-5.595 5.653-5.595 3.12 0 5.652 2.505 5.652 5.595zM18.957 43.405c0 3.09-2.532 5.595-5.653 5.595-3.12 0-5.652-2.506-5.652-5.595 0-3.09 2.531-5.595 5.652-5.595s5.653 2.505 5.653 5.595zM4.26 27.738h6.783M13.304 27.738h3.392M30.26 27.738h21.48"/>
        <path d="M47.099 39.898l4.64-12.16H54v-5.595H2v5.595h2.26l5.28 11.5M18.957 43.405h18.087M14.435 43.405h-2.261M43.826 43.405h-2.26"/>
        <path stroke-linejoin="round" d="M32.522 19.905c0-2.163 1.771-3.917 3.956-3.917s3.957 1.754 3.957 3.917M26.87 16.548c0-2.162 1.77-3.916 3.955-3.916 2.034 0 3.71 1.522 3.93 3.478"/>
        <path d="M6.522 19.905c0-3.09 2.53-5.595 5.652-5.595.155 0 .3.032.452.045a5.654 5.654 0 0 1 7.523-2.897 5.613 5.613 0 0 1 5.59-4.982c.831 0 1.613.187 2.323.506A5.613 5.613 0 0 1 33.652 2c3.121 0 5.652 2.506 5.652 5.595 3.121 0 5.653 2.506 5.653 5.595 3.12 0 5.652 2.506 5.652 5.596v1.119"/>
        <path stroke-linejoin="round" d="M20.15 11.446a5.66 5.66 0 0 1 2.197 1.744M28.064 6.97a5.66 5.66 0 0 1 2.196 1.744"/>
    </g>
</svg>
