<svg xmlns="http://www.w3.org/2000/svg" width="53" height="51" viewBox="0 0 53 51">
    <g fill="none" fill-rule="evenodd" stroke="#24D4E3" stroke-width="2.21">
        <path d="M5.39 6.851c-2.614.508-3.515 2.707-3.377 5.387.539 10.432 16.707 20.959 16.7 30.867-.002 2.683-1.868 5.264-4.481 5.772-2.613.507-4.814-1.417-4.981-3.933-.098-1.22.268-2.845.268-2.845l6.437-1.25"/>
        <path d="M40.02 31.279c1.875 2.347 3.578 4.052 3.294 7.049-.252 2.67-1.868 5.262-4.48 5.771l-24.602 4.778M27.81 9.185c.5 3.014 4.445 11.412 6.533 14.182"/>
        <path d="M29.992 2.074L5.389 6.85c1.848-.358 3.558.695 4.413 2.093.695 1.138.737 2.576.508 3.447a.14.14 0 0 0 .164.178l23.934-4.667c.656-1.525.528-3.315-.384-4.356-.951-1.082-2.436-1.782-4.032-1.472zM50.158 16.956c1.172 1.175 1.36 2.276 1.282 2.886l-14.928 14.95c-2.701 2.705-6.716 2.476-6.716 2.476s-.228-4.021 2.472-6.726L47.196 15.59c.61-.078 1.71.112 2.882 1.286l.08.08zM44.814 17.899l4.242 4.25"/>
        <path stroke-linecap="round" stroke-linejoin="round" d="M22 15.576l-5.556 3.339v6.677L22 28.931l5.556-3.339v-6.677z"/>
        <path stroke-linecap="round" stroke-linejoin="round" d="M16.444 18.915L22 22.254l5.556-3.34M22 22.254v6.677"/>
    </g>
</svg>
