<svg xmlns="http://www.w3.org/2000/svg" width="15" height="13" viewBox="0 0 15 13">
    <path fill="#CCC" fill-rule="evenodd" d="M14.573.289c-.436.297-1.437.73-1.93.73A2.999 2.999 0 0 0 10.406 0C8.697 0 7.312 1.478 7.312 3.3c0 .253.027.5.078.737C5.072 3.972 2.536 2.733 1.01.612.072 2.344.884 4.27 1.95 4.973c-.365.03-1.036-.045-1.352-.374-.02 1.15.498 2.674 2.388 3.227-.364.208-1.009.149-1.289.104.098.97 1.373 2.24 2.766 2.24-.496.613-2.365 1.724-4.462 1.37C1.424 12.465 3.084 13 4.84 13c4.993 0 8.87-4.316 8.662-9.64l-.001-.018V3.3l-.001-.048a5.552 5.552 0 0 0 1.5-1.69c-.253.148-1.01.446-1.716.52.453-.261 1.123-1.115 1.289-1.793"/>
</svg>
