<svg xmlns="http://www.w3.org/2000/svg" viewBox="0 0 11 10.951">
  <defs>
    <style>
      .cls-1 {
        fill: #24d4e3;
      }
    </style>
  </defs>
  <path id="Shape" class="cls-1" d="M11,10.951H0V10.5a2.129,2.129,0,0,1,1.076-2.05c1.153-.733,2.47-1.387,2.481-1.392.166-.089.285-.328.355-.708a2.516,2.516,0,0,0,.045-.269V6.074l0-.02c-1.2-1.076-.968-3.419-.966-3.443A2.415,2.415,0,0,1,5.43,0L5.5,0l.072,0A2.414,2.414,0,0,1,8.006,2.612c0,.023.236,2.366-.966,3.443.006.048.015.1.024.148s.02.106.025.15c.068.38.187.618.354.708.011.005,1.329.66,2.481,1.392A2.116,2.116,0,0,1,11,10.5v.447Z"/>
</svg>
