<svg xmlns="http://www.w3.org/2000/svg" width="22" height="17" viewBox="0 0 22 17">
    <path fill="#24D4E3" fill-rule="evenodd" d="M17.932 7.641c0-1.093-.861-1.982-1.92-1.982-.26 0-.51.052-.748.155a.716.716 0 0 1-.95-.398.76.76 0 0 1 .386-.983 3.254 3.254 0 0 1 1.312-.274c1.859 0 3.371 1.562 3.371 3.482 0 1.921-1.512 3.484-3.37 3.484a3.328 3.328 0 0 1-2.526-1.177.768.768 0 0 1 .063-1.058.708.708 0 0 1 1.023.064c.365.426.89.67 1.44.67 1.058 0 1.92-.889 1.92-1.983zM22 14.261c0 .413-.325.739-.725.739h-3.232a.738.738 0 0 1-.725-.75c0-.414.325-.75.725-.75h2.153c-.351-.5-.94-.894-1.66-1.304a.75.75 0 0 1-.286-1.008.713.713 0 0 1 .985-.296C20.267 11.479 22 12.688 22 14.26zM2.72 15c.82-.638 2.194-1.359 3.689-1.892l1.652 1.036a.94.94 0 0 0 1.003 0l1.652-1.036c1.494.533 2.869 1.254 3.69 1.892H2.719zm8.169-3.94a.941.941 0 0 0-.794.098l-1.533.962-1.533-.962a.94.94 0 0 0-.793-.098C4.773 11.54 0 13.314 0 16c0 .552.433 1 .967 1h15.19c.535 0 .968-.448.968-1 0-2.686-4.773-4.46-6.236-4.94zM8.562 2c1.753 0 3.18 1.473 3.18 3.284 0 1.81-1.427 3.283-3.18 3.283-1.753 0-3.179-1.473-3.179-3.283C5.383 3.473 6.809 2 8.563 2zm0 8.567c2.82 0 5.114-2.37 5.114-5.283C13.676 2.37 11.382 0 8.562 0S3.45 2.37 3.45 5.284c0 2.913 2.294 5.283 5.113 5.283z"/>
</svg>
